<svg width="10" height="13" viewBox="0 0 10 13" fill="none" xmlns="http://www.w3.org/2000/svg">
<path d="M2.49999 10.1666H7.49996V9.16665H2.49999V10.1666ZM2.49999 7.49996H7.49996V6.49999H2.49999V7.49996ZM1.20512 12.6666C0.868369 12.6666 0.583328 12.55 0.349997 12.3166C0.116666 12.0833 0 11.7982 0 11.4615V1.20512C0 0.868369 0.116666 0.583328 0.349997 0.349997C0.583328 0.116666 0.868369 0 1.20512 0H6.49999L9.99995 3.49996V11.4615C9.99995 11.7982 9.88329 12.0833 9.64995 12.3166C9.41662 12.55 9.13158 12.6666 8.79483 12.6666H1.20512ZM6 3.99995V0.999976H1.20512C1.15383 0.999976 1.10682 1.02134 1.06408 1.06408C1.02134 1.10682 0.999976 1.15383 0.999976 1.20512V11.4615C0.999976 11.5128 1.02134 11.5598 1.06408 11.6025C1.10682 11.6453 1.15383 11.6666 1.20512 11.6666H8.79483C8.84612 11.6666 8.89313 11.6453 8.93587 11.6025C8.97861 11.5598 8.99998 11.5128 8.99998 11.4615V3.99995H6ZM0.999976 0.999976V3.99995V0.999976V3.99995V11.4615C0.999976 11.5128 0.999976 11.5598 0.999976 11.6025C0.999976 11.6453 0.999976 11.6666 0.999976 11.6666C0.999976 11.6666 0.999976 11.6453 0.999976 11.6025C0.999976 11.5598 0.999976 11.5128 0.999976 11.4615V1.20512C0.999976 1.15383 0.999976 1.10682 0.999976 1.06408C0.999976 1.02134 0.999976 0.999976 0.999976 0.999976Z" fill="#8B5CF6"/>
</svg>
