<svg width="16" height="15" viewBox="0 0 16 15" fill="none" xmlns="http://www.w3.org/2000/svg">
<path d="M3.83332 15C3.32478 15 2.89209 14.8216 2.53525 14.4647C2.17842 14.1079 2 13.6752 2 13.1667C2 12.6581 2.17842 12.2254 2.53525 11.8686C2.89209 11.5118 3.32478 11.3333 3.83332 11.3333C3.97606 11.3333 4.11623 11.3511 4.25383 11.3865C4.39144 11.422 4.52135 11.4697 4.64358 11.5295L5.9654 9.88458C5.68848 9.58288 5.49745 9.24527 5.39233 8.87177C5.2872 8.49827 5.26583 8.12264 5.32823 7.74486L3.40767 7.10895C3.24015 7.37818 3.01943 7.59399 2.7455 7.75639C2.47157 7.91878 2.16751 7.99998 1.83332 7.99998C1.32478 7.99998 0.892088 7.82156 0.535253 7.46472C0.178418 7.10789 0 6.6752 0 6.16665C0 5.65811 0.178418 5.22542 0.535253 4.86859C0.892088 4.51175 1.32478 4.33333 1.83332 4.33333C2.34186 4.33333 2.77455 4.51175 3.13139 4.86859C3.48822 5.22542 3.66664 5.65811 3.66664 6.16665C3.66664 6.20597 3.66557 6.23888 3.66344 6.26537C3.6613 6.29187 3.66023 6.31837 3.66023 6.34486L5.57438 7.01026C5.75813 6.6701 6.01048 6.37822 6.33142 6.13463C6.65235 5.89104 7.02051 5.73464 7.43589 5.66541V3.61921C7.00683 3.51835 6.66025 3.30148 6.39615 2.96857C6.13205 2.63567 6 2.25725 6 1.83332C6 1.32478 6.17842 0.892088 6.53525 0.535253C6.89209 0.178418 7.32478 0 7.83332 0C8.34186 0 8.77455 0.178418 9.13139 0.535253C9.48822 0.892088 9.66664 1.32478 9.66664 1.83332C9.66664 2.25725 9.53288 2.63567 9.26536 2.96857C8.99784 3.30148 8.65297 3.51835 8.23075 3.61921V5.66541C8.64613 5.73464 9.01322 5.89104 9.33202 6.13463C9.65082 6.37822 9.90423 6.6701 10.0923 7.01026L12.0064 6.34486C12.0021 6.31409 12 6.28653 12 6.26217C12 6.23781 12 6.20597 12 6.16665C12 5.65811 12.1784 5.22542 12.5353 4.86859C12.8921 4.51175 13.3248 4.33333 13.8333 4.33333C14.3419 4.33333 14.7746 4.51175 15.1314 4.86859C15.4882 5.22542 15.6666 5.65811 15.6666 6.16665C15.6666 6.6752 15.4882 7.10789 15.1314 7.46472C14.7746 7.82156 14.3419 7.99998 13.8333 7.99998C13.4991 7.99998 13.1934 7.91878 12.916 7.75639C12.6387 7.59399 12.4197 7.37818 12.259 7.10895L10.3384 7.74486C10.4008 8.12264 10.3794 8.49656 10.2743 8.86664C10.1692 9.23673 9.97816 9.5739 9.70124 9.87817L11.0231 11.5128C11.1453 11.4573 11.2752 11.4135 11.4128 11.3814C11.5504 11.3494 11.6906 11.3333 11.8333 11.3333C12.3419 11.3333 12.7746 11.5118 13.1314 11.8686C13.4882 12.2254 13.6666 12.6581 13.6666 13.1667C13.6666 13.6752 13.4882 14.1079 13.1314 14.4647C12.7746 14.8216 12.3419 15 11.8333 15C11.3248 15 10.8921 14.8216 10.5353 14.4647C10.1784 14.1079 10 13.6752 10 13.1667C10 12.9573 10.034 12.7551 10.1019 12.5602C10.1699 12.3654 10.2714 12.1867 10.4064 12.0244L9.08459 10.3666C8.70596 10.5923 8.28823 10.7051 7.8314 10.7051C7.37457 10.7051 6.9547 10.5923 6.5718 10.3666L5.26023 12.0244C5.391 12.1867 5.49143 12.3654 5.56151 12.5602C5.6316 12.7551 5.66664 12.9573 5.66664 13.1667C5.66664 13.6752 5.48822 14.1079 5.13139 14.4647C4.77455 14.8216 4.34186 15 3.83332 15ZM1.83332 7C2.06495 7 2.26175 6.91902 2.42371 6.75705C2.58568 6.59508 2.66667 6.39828 2.66667 6.16665C2.66667 5.93503 2.58568 5.73823 2.42371 5.57626C2.26175 5.41429 2.06495 5.33331 1.83332 5.33331C1.60169 5.33331 1.4049 5.41429 1.24293 5.57626C1.08096 5.73823 0.999976 5.93503 0.999976 6.16665C0.999976 6.39828 1.08096 6.59508 1.24293 6.75705C1.4049 6.91902 1.60169 7 1.83332 7ZM3.83332 14C4.06495 14 4.26175 13.919 4.42371 13.757C4.58568 13.5951 4.66667 13.3983 4.66667 13.1667C4.66667 12.935 4.58568 12.7382 4.42371 12.5763C4.26175 12.4143 4.06495 12.3333 3.83332 12.3333C3.60169 12.3333 3.4049 12.4143 3.24293 12.5763C3.08096 12.7382 2.99998 12.935 2.99998 13.1667C2.99998 13.3983 3.08096 13.5951 3.24293 13.757C3.4049 13.919 3.60169 14 3.83332 14ZM7.83332 2.66667C8.06495 2.66667 8.26175 2.58568 8.42371 2.42371C8.58568 2.26175 8.66667 2.06495 8.66667 1.83332C8.66667 1.60169 8.58568 1.4049 8.42371 1.24293C8.26175 1.08096 8.06495 0.999976 7.83332 0.999976C7.60169 0.999976 7.4049 1.08096 7.24293 1.24293C7.08096 1.4049 6.99998 1.60169 6.99998 1.83332C6.99998 2.06495 7.08096 2.26175 7.24293 2.42371C7.4049 2.58568 7.60169 2.66667 7.83332 2.66667ZM7.83332 9.70511C8.26152 9.70511 8.62498 9.55575 8.9237 9.25703C9.22242 8.95832 9.37177 8.59486 9.37177 8.16665C9.37177 7.73845 9.22242 7.37499 8.9237 7.07628C8.62498 6.77756 8.26152 6.6282 7.83332 6.6282C7.40512 6.6282 7.04166 6.77756 6.74294 7.07628C6.44423 7.37499 6.29487 7.73845 6.29487 8.16665C6.29487 8.59486 6.44423 8.95832 6.74294 9.25703C7.04166 9.55575 7.40512 9.70511 7.83332 9.70511ZM11.8333 14C12.0649 14 12.2617 13.919 12.4237 13.757C12.5857 13.5951 12.6667 13.3983 12.6667 13.1667C12.6667 12.935 12.5857 12.7382 12.4237 12.5763C12.2617 12.4143 12.0649 12.3333 11.8333 12.3333C11.6017 12.3333 11.4049 12.4143 11.2429 12.5763C11.081 12.7382 11 12.935 11 13.1667C11 13.3983 11.081 13.5951 11.2429 13.757C11.4049 13.919 11.6017 14 11.8333 14ZM13.8333 7C14.0649 7 14.2617 6.91902 14.4237 6.75705C14.5857 6.59508 14.6667 6.39828 14.6667 6.16665C14.6667 5.93503 14.5857 5.73823 14.4237 5.57626C14.2617 5.41429 14.0649 5.33331 13.8333 5.33331C13.6017 5.33331 13.4049 5.41429 13.2429 5.57626C13.081 5.73823 13 5.93503 13 6.16665C13 6.39828 13.081 6.59508 13.2429 6.75705C13.4049 6.91902 13.6017 7 13.8333 7Z" fill="#8B5CF6"/>
</svg>
